<svg xmlns="http://www.w3.org/2000/svg" viewBox="0 0 283.36 403"><defs><style>.cls-1{fill:#31a6eb;}</style></defs><title>about</title><g id="レイヤー_2" data-name="レイヤー 2"><g id="レイヤー_1-2" data-name="レイヤー 1"><path class="cls-1" d="M212.52,261.32h23.61v23.61H212.52Z"/><path class="cls-1" d="M162.67,403a70.91,70.91,0,0,0,73.46-70.79V331a59,59,0,1,0-23.61,0v.5c0,25.32-19.66,46.67-45,47.86a47.27,47.27,0,0,1-49.5-47.17V213.43a106.41,106.41,0,0,0,94.45-105.6V35.42A35.42,35.42,0,0,0,177.1,0H141.68V23.61h40.55a6.68,6.68,0,0,1,6.68,6.68v97.45a47.32,47.32,0,0,1-16.56,35.92c-69.26,59.41-148.74,10.9-148.74-55.83V35.42A11.81,11.81,0,0,1,35.42,23.61H70.84V0H35.42A35.42,35.42,0,0,0,0,35.42v72.41a106.41,106.41,0,0,0,94.45,105.6V331.28C94.45,369.54,124.44,401.56,162.67,403Zm26.61-129.82a35.42,35.42,0,1,1,35.42,35.42A35.46,35.46,0,0,1,189.28,273.13Z"/></g></g></svg>