<svg xmlns="http://www.w3.org/2000/svg" viewBox="0 0 360 512"><defs><style>.cls-1{fill:#31a6eb;}</style></defs><title>about-here</title><g id="レイヤー_2" data-name="レイヤー 2"><g id="レイヤー_1-2" data-name="レイヤー 1"><path class="cls-1" d="M270,332h30v30H270Z"/><path class="cls-1" d="M206.67,511.94A90.09,90.09,0,0,0,300,422v-1.51a75,75,0,1,0-30,0v.63c0,32.17-25,59.3-57.11,60.81A60.07,60.07,0,0,1,150,422V271.16c67.41-7.48,120-64.79,120-134.16V45A45,45,0,0,0,225,0H180V30h51.52A8.48,8.48,0,0,1,240,38.48V162.29a60.15,60.15,0,0,1-21,45.64C131,283.4,30,221.77,30,137V45A15,15,0,0,1,45,30H90V0H45A45,45,0,0,0,0,45v92c0,69.37,52.59,126.68,120,134.16V420.88C120,469.49,158.1,510.18,206.67,511.94ZM240.48,347a45,45,0,1,1,45,45A45.05,45.05,0,0,1,240.48,347Z"/></g></g></svg>