<svg xmlns="http://www.w3.org/2000/svg" viewBox="0 0 319.92 455"><defs><style>.cls-1{fill:#31a6eb;}</style></defs><title>about-here_1</title><g id="レイヤー_2" data-name="レイヤー 2"><g id="レイヤー_1-2" data-name="レイヤー 1"><path class="cls-1" d="M239.94,295H266.6V321.7H239.94Z"/><path class="cls-1" d="M183.66,455A80.07,80.07,0,0,0,266.6,375v-1.34a66.65,66.65,0,1,0-26.66,0v.56c0,28.58-22.2,52.69-50.75,54A53.38,53.38,0,0,1,133.3,375V241A120.14,120.14,0,0,0,239.94,121.75V40A40,40,0,0,0,200,0H160V26.66h45.79a7.53,7.53,0,0,1,7.53,7.53v110a53.46,53.46,0,0,1-18.69,40.56c-78.2,67.07-167.93,12.3-167.93-63V40A13.33,13.33,0,0,1,40,26.66H80V0H40A40,40,0,0,0,0,40v81.76A120.14,120.14,0,0,0,106.64,241V374C106.64,417.22,140.5,453.38,183.66,455Zm30.05-146.58a40,40,0,1,1,40,40A40,40,0,0,1,213.71,308.37Z"/></g></g></svg>