<svg xmlns="http://www.w3.org/2000/svg" viewBox="0 0 512.21 511.66"><defs><style>.cls-1{fill:#31a6eb;}</style></defs><title>blog</title><g id="レイヤー_2" data-name="レイヤー 2"><g id="レイヤー_1-2" data-name="レイヤー 1"><path class="cls-1" d="M254,511.66a10.66,10.66,0,0,1-10.48-12.74l15.09-75.41a10.36,10.36,0,0,1,2.92-5.46L427.44,252.12a32.06,32.06,0,0,1,45.25,0l30.16,30.16a32,32,0,0,1,0,45.25L336.92,493.46a10.59,10.59,0,0,1-5.46,2.93l-75.41,15.08A11.15,11.15,0,0,1,254,511.66Zm24.92-80.83-11.31,56.55,56.55-11.3L487.79,312.43a10.67,10.67,0,0,0,0-15.08l-30.16-30.17a10.68,10.68,0,0,0-15.09,0Zm50.49,54.67h0Z"/><path class="cls-1" d="M202.91,447.5H53.57C24.15,447.66,0,394.33,0,394.33V74.39A10.9,10.9,0,0,1,10.89,63.5H98.65a2.23,2.23,0,0,1,1.53.6c9.64,9.14,3.29,20.4-5.68,20.4h-67A6.54,6.54,0,0,0,21,91V394.33s14.93,32,32.57,32.17H202.91a10.5,10.5,0,1,1,0,21Z"/><path class="cls-1" d="M352.24,255.66A10.06,10.06,0,0,1,342,245V117A33.46,33.46,0,0,0,309.57,84.5H266.91a10,10,0,0,1-10.67-10.17A10.92,10.92,0,0,1,266.91,63.5h42.66A53.76,53.76,0,0,1,363,117V245A10.81,10.81,0,0,1,352.24,255.66Z"/><path class="cls-1" d="M246,127.5H118a32,32,0,0,1-32-32V53.17A10.67,10.67,0,0,1,96.67,42.5h33.06a53.39,53.39,0,0,1,104.54,0h33.06A10.67,10.67,0,0,1,278,53.17V95.5A32,32,0,0,1,246,127.5Zm-139-64V95.83a10.7,10.7,0,0,0,10.67,10.67H245.33A10.7,10.7,0,0,0,256,95.83V63.5H224.09a10.73,10.73,0,0,1-10.66-10.83,31.93,31.93,0,1,0-63.86,0A10.73,10.73,0,0,1,138.91,63.5Z"/><path class="cls-1" d="M288.24,191.5H75.11A10.75,10.75,0,0,1,64.28,182,10.58,10.58,0,0,1,74.91,170.5H288a10.74,10.74,0,0,1,10.83,9.55A10.57,10.57,0,0,1,288.24,191.5Z"/><path class="cls-1" d="M288.24,255.5H75.11A10.75,10.75,0,0,1,64.28,246,10.58,10.58,0,0,1,74.91,234.5H288a10.74,10.74,0,0,1,10.83,9.55A10.57,10.57,0,0,1,288.24,255.5Z"/><path class="cls-1" d="M288.24,319.5H75.11A10.75,10.75,0,0,1,64.28,310,10.58,10.58,0,0,1,74.91,298.5H288a10.74,10.74,0,0,1,10.83,9.55A10.57,10.57,0,0,1,288.24,319.5Z"/></g></g></svg>