<svg xmlns="http://www.w3.org/2000/svg" viewBox="0 0 512 512"><defs><style>.cls-1{fill:#fff;}</style></defs><title>denwa</title><g id="レイヤー_2" data-name="レイヤー 2"><g id="レイヤー_1-2" data-name="レイヤー 1"><path class="cls-1" d="M496,367.58a127.19,127.19,0,0,1-38.49,91.66c-33.43,32.66-84,46.78-133,29A503.72,503.72,0,0,1,23.78,187.5C-.94,119.48,35.9,48.31,98.49,24.39A128.16,128.16,0,0,1,144.41,16l0,.15,25.09,117L162,140.74l-43.42,43.42A436.89,436.89,0,0,0,327.84,393.43l51-51Z"/><path class="cls-1" d="M118.1,74.53A30,30,0,0,0,81.62,51.67,126.51,126.51,0,0,0,39.21,70.85,127.47,127.47,0,0,1,144.41,16l0,.15,25.09,117L162,140.74l-24.45,24.45Z"/><path class="cls-1" d="M327.84,393.43l-16.7,16.7a30.08,30.08,0,0,1-35.47,5.18,437.27,437.27,0,0,1-179-179,30.07,30.07,0,0,1,5.18-35.48l16.7-16.69A436.83,436.83,0,0,0,327.84,393.43Z"/><path class="cls-1" d="M496,367.58a127.19,127.19,0,0,1-38.49,91.66,130.82,130.82,0,0,1-16.36,13.56,126.45,126.45,0,0,0,19.24-42.66,30,30,0,0,0-22.91-36.24l-90.67-19.44,32-32Z"/><path class="cls-1" d="M368,512A142.74,142.74,0,0,1,319,503.26a522.08,522.08,0,0,1-189.5-120.79A522.08,522.08,0,0,1,8.74,193a141.6,141.6,0,0,1-7.22-69.61A145.23,145.23,0,0,1,76.15,17.05,142.66,142.66,0,0,1,144.42,0a16,16,0,0,1,15.64,12.65l25.11,117.19a16,16,0,0,1-4.33,14.67l-42.91,42.91A421.18,421.18,0,0,0,324.58,374.07l42.91-42.92a16,16,0,0,1,14.67-4.33l117.19,25.12A16,16,0,0,1,512,367.58a142.49,142.49,0,0,1-17.06,68.26,145.17,145.17,0,0,1-106.3,74.64A142.65,142.65,0,0,1,368,512ZM131.63,32.7A112.11,112.11,0,0,0,38.82,182,485.28,485.28,0,0,0,330,473.18,112.11,112.11,0,0,0,479.3,380.37L384,359.94l-44.81,44.81A16,16,0,0,1,321,407.92,453.09,453.09,0,0,1,104.08,191a16,16,0,0,1,3.17-18.12L152.06,128Z"/></g></g></svg>