<svg xmlns="http://www.w3.org/2000/svg" viewBox="0 0 511.93 487.13"><defs><style>.cls-1{fill:#31a6eb;}</style></defs><title>home_1</title><g id="レイヤー_2" data-name="レイヤー 2"><g id="レイヤー_1-2" data-name="レイヤー 1"><path class="cls-1" d="M503.33,216.42,273.65,6.9a26.11,26.11,0,0,0-35.37,0L8.6,216.42a26.29,26.29,0,0,0,17.68,45.71H63V472.07A15.06,15.06,0,0,0,78,487.13H203.9A15.06,15.06,0,0,0,219,472.07V344.13h74V472.07A15.06,15.06,0,0,0,308,487.13H433.9A15.06,15.06,0,0,0,449,472.07V262.13h36.69a26.29,26.29,0,0,0,17.68-45.71Z"/><path class="cls-1" d="M444.91,30.13H343.79L460,135.76V45.18A15.05,15.05,0,0,0,444.91,30.13Z"/></g></g></svg>