<svg xmlns="http://www.w3.org/2000/svg" viewBox="0 0 1264 97.15"><defs><style>.cls-1{fill:#ff0;}</style></defs><title>nami_1</title><g id="レイヤー_2" data-name="レイヤー 2"><g id="レイヤー_1-2" data-name="レイヤー 1"><path class="cls-1" d="M2,16.15q-1,39-2,78l1264,3q-1-46.5-2-93a144.54,144.54,0,0,0-56,0c-44.7,8.93-72.2,36.93-82,48-2.15-3.11-37-51.69-98-49-57,2.52-87.19,47.65-90,52-2.62-3.9-36-51.9-97-52-59.73-.09-93.06,45.8-96,50-2.74-4.06-36.12-51.71-97-52-59.29-.27-92.84,44.62-96,49-3.22-4.79-32.65-47.1-87-50-61.73-3.29-97.22,47.36-99,50-3.86-5.37-35-47.25-91-50-62.34-3-99.18,45.17-102,49-9.87-9.73-47.29-44.29-104-46A149.46,149.46,0,0,0,2,16.15Z"/></g></g></svg>