<svg xmlns="http://www.w3.org/2000/svg" viewBox="0 0 512 512"><defs><style>.cls-1{fill:#31a6eb;}</style></defs><title>schedule</title><g id="レイヤー_2" data-name="レイヤー 2"><g id="レイヤー_1-2" data-name="レイヤー 1"><path class="cls-1" d="M452,40H428V0H388V40H124V0H84V40H60A60,60,0,0,0,0,100V452a60,60,0,0,0,60,60H452a60,60,0,0,0,60-60V100A60,60,0,0,0,452,40Zm0,432H60a20,20,0,0,1-20-20V188H472V452A20,20,0,0,1,452,472Zm20-324H40V100A20,20,0,0,1,60,80H84v40h40V80H388v40h40V80h24a20,20,0,0,1,20,20Z"/><rect class="cls-1" x="76" y="230" width="40" height="40"/><rect class="cls-1" x="156" y="230" width="40" height="40"/><rect class="cls-1" x="236" y="230" width="40" height="40"/><rect class="cls-1" x="316" y="230" width="40" height="40"/><rect class="cls-1" x="396" y="230" width="40" height="40"/><rect class="cls-1" x="76" y="310" width="40" height="40"/><rect class="cls-1" x="156" y="310" width="40" height="40"/><rect class="cls-1" x="236" y="310" width="40" height="40"/><rect class="cls-1" x="316" y="310" width="40" height="40"/><rect class="cls-1" x="76" y="390" width="40" height="40"/><rect class="cls-1" x="156" y="390" width="40" height="40"/><rect class="cls-1" x="236" y="390" width="40" height="40"/><rect class="cls-1" x="316" y="390" width="40" height="40"/><rect class="cls-1" x="396" y="310" width="40" height="40"/></g></g></svg>