<svg xmlns="http://www.w3.org/2000/svg" viewBox="0 0 511 447.81"><defs><style>.cls-1{fill:#31a6eb;}</style></defs><title>stuff</title><g id="レイヤー_2" data-name="レイヤー 2"><g id="レイヤー_1-2" data-name="レイヤー 1"><path class="cls-1" d="M314.44,329.7H286.66a7.7,7.7,0,0,0-7.73,6.56,7.51,7.51,0,0,0,7.45,8.44h27.78a7.71,7.71,0,0,0,7.73-6.56A7.51,7.51,0,0,0,314.44,329.7Z"/><path class="cls-1" d="M479.33,249.38l-40.75-15.72-20.77-20.77a7.44,7.44,0,0,0-4.81-2.17V193.8a77.16,77.16,0,0,0,19.57-38.55,22.12,22.12,0,0,0,5.25-.42c9.95-2,17.18-11.28,17.18-22v-5.69a22.42,22.42,0,0,0-6.59-15.91C455,75.33,449.57,46,432.6,26.43c-16.42-19-42.88-28-76.5-26.2C325,1.91,305,16.2,298.62,21.43a39.51,39.51,0,0,0-15.4,5.23c-8.31,5-18.22,15.47-18.22,37.05a186.81,186.81,0,0,0,5.19,43.47A22.19,22.19,0,0,0,258,127.27v5.61c0,10.71,7.22,20,17.18,22a21.13,21.13,0,0,0,5.25.42A77.36,77.36,0,0,0,300,194v16.57a7.44,7.44,0,0,0-4.81,2.17l-20.77,20.83-40.75,15.75a49.84,49.84,0,0,0-9.77,5.09,7.64,7.64,0,0,0-3,9.21,7.49,7.49,0,0,0,11.13,3.36,34.94,34.94,0,0,1,7-3.67l37.81-14.62,28.91,43.47a21.42,21.42,0,0,0,15.76,9.49c.71.07,1.43.1,2.14.1a21.36,21.36,0,0,0,10.53-2.79L328,440a7.48,7.48,0,0,0,7.14,7.82h.34a7.5,7.5,0,0,0,7.47-7.17l5.75-130.94h15.34l5.77,130.94a7.51,7.51,0,0,0,7.49,7.17h.33a7.5,7.5,0,0,0,7.17-7.82l-6.22-141.07a21.41,21.41,0,0,0,10.55,2.79c.72,0,1.43,0,2.15-.1a21.46,21.46,0,0,0,15.79-9.49l29-43.47L474,263.26a34.5,34.5,0,0,1,13.49,9.41L449.3,310.82a7.9,7.9,0,0,0-2.3,5.56V443.43a1.28,1.28,0,0,0,.33.85c6.56,7,14.67,2.47,14.67-4V333.61a34.6,34.6,0,0,1,10.13-24.47l22.68-22.68a34.4,34.4,0,0,1,1.2,10.46l-5.8,142.7a7.5,7.5,0,0,0,7,7.81l.47,0a7.48,7.48,0,0,0,7.47-7.18L511,297.53A49.45,49.45,0,0,0,479.33,249.38ZM295.11,152A14.57,14.57,0,0,0,280,140.15a6.41,6.41,0,0,1-1.74-.12c-3-.61-5.22-3.75-5.22-7.3v-5.37c0-3.47,2.32-6.6,5.28-7.12a6.51,6.51,0,0,1,6.4,2.46A10.44,10.44,0,0,0,299,125a54.36,54.36,0,0,0,12.07-11.73,7.66,7.66,0,0,0-.2-9.69,7.49,7.49,0,0,0-11.61.5,39.61,39.61,0,0,1-5.83,6.29,21.4,21.4,0,0,0-8.11-4.33A172.18,172.18,0,0,1,280,63.83c0-11.46,3.53-19.51,10.49-23.93a24.2,24.2,0,0,1,11.19-3.58,7.57,7.57,0,0,0,5.16-2.07C307,34.08,325.41,17,356.9,15.31c28.83-1.56,51.08,5.72,64.36,21s17.83,39.17,13,68.86a32,32,0,0,0-6.38.44l-7-16.88a7.49,7.49,0,0,0-8.8-4.36c-.69.18-69.77,17.69-98.74-18.37a7.48,7.48,0,1,0-11.66,9.37c29.58,36.83,88.27,28.82,107.8,24.91l5.44,13a12.29,12.29,0,0,0,14.21,7.28,16.38,16.38,0,0,1,5.59-.41,7.06,7.06,0,0,1,5.31,7v5.46c0,3.55-2.24,6.69-5.22,7.3a6.44,6.44,0,0,1-1.74.12A14.58,14.58,0,0,0,417.89,152a62.42,62.42,0,0,1-122.78,0Zm33.15,132.69a6.53,6.53,0,0,1-10.05-1L289,239.92l11.74-11.74,44.82,39.22Zm21.16,10,.45-10.31,6.67-6.67,6.67,6.67.46,10.31ZM356.5,257,315,220.68V206.37a77.38,77.38,0,0,0,83,0v14.31Zm38.38,26.71a6.53,6.53,0,0,1-10.05,1L367.52,267.4l44.82-39.22,11.74,11.74Z"/><path class="cls-1" d="M237.31,288.64,200.78,272.7l-20-20a7.44,7.44,0,0,0-4.81-2.17V238.43a77.26,77.26,0,0,0,33.57-50.31,21.52,21.52,0,0,0,5.91-.56c9.57-2.27,16.52-11.44,16.52-21.82V160a22.3,22.3,0,0,0-9.59-18.4A84.85,84.85,0,0,0,225,120.87c0-31-16.76-58.31-42-74C182.71,21,160.62,0,133.5,0S84.29,21,84,46.88c-25.26,15.68-42,43-42,74a84.89,84.89,0,0,0,2.57,20.68A22.36,22.36,0,0,0,35,160.09v5.65c0,10.38,7,19.55,16.52,21.82a21.52,21.52,0,0,0,5.91.56A77.26,77.26,0,0,0,91,238.43v12.12a7.44,7.44,0,0,0-4.81,2.17l-20,20L29.68,288.64A49.8,49.8,0,0,0,0,336.08L4.46,440.33a7.48,7.48,0,0,0,7.47,7.16h.32a7.49,7.49,0,0,0,7.16-7.8L15,335.45a34.53,34.53,0,0,1,4.75-18.85l19.61,23.54A41.59,41.59,0,0,1,49,366.79v73.15a7.68,7.68,0,0,0,6.56,7.73A7.5,7.5,0,0,0,64,440.23V366.74a56.62,56.62,0,0,0-13.12-36.25l-20.83-25a34.11,34.11,0,0,1,5.67-3.18l31.83-13.89,22.3,36.2a15.11,15.11,0,0,0,5.87,5.57,14.46,14.46,0,0,0,16-1.86L126,316.18V439.94a7.68,7.68,0,0,0,6.56,7.73,7.5,7.5,0,0,0,8.44-7.44v-124l14.25,12.16a14.47,14.47,0,0,0,9.39,3.46,14.43,14.43,0,0,0,12.5-7.16l22.31-36.22,31.82,13.89A34.2,34.2,0,0,1,237,305.5l-20.87,25A56.59,56.59,0,0,0,203,366.68V440a7.68,7.68,0,0,0,6.56,7.72,7.5,7.5,0,0,0,8.44-7.44V366.75a41.64,41.64,0,0,1,9.62-26.58l19.64-23.56A34.4,34.4,0,0,1,252,335.45l-4.42,104.24a7.48,7.48,0,0,0,7.16,7.79h.32a7.48,7.48,0,0,0,7.47-7.17L267,336.09A49.8,49.8,0,0,0,237.31,288.64ZM133.2,14.86c16,0,29.42,10.18,33.4,24a95.07,95.07,0,0,0-66.8,0C103.78,25,117.24,14.86,133.2,14.86Zm-61.1,170A14.56,14.56,0,0,0,57,173a6.28,6.28,0,0,1-2-.17c-2.85-.67-5-3.79-5-7.25v-5.37c0-3.47,2.32-6.6,5.28-7.12a6.51,6.51,0,0,1,6.4,2.46A10.43,10.43,0,0,0,76,157.81a54.07,54.07,0,0,0,11.92-11.53,7.64,7.64,0,0,0-.15-9.67,7.49,7.49,0,0,0-11.62.44,40,40,0,0,1-5.71,6.13,21.47,21.47,0,0,0-11.29-5A69.75,69.75,0,0,1,57,121c0-40.25,34.31-73,76.5-73S210,80.77,210,121a69.51,69.51,0,0,1-2.16,17.16,34.65,34.65,0,0,0-5.82,1l-5.62-4.62a14.38,14.38,0,0,0-10-3.28c-11,.65-67.31,2.14-96.2-32.44a7.5,7.5,0,0,0-11.65.2,7.62,7.62,0,0,0,.32,9.58c14.24,17,35.09,28.42,62,34.09A183.31,183.31,0,0,0,187,146.19l8.78,7.22a7.47,7.47,0,0,0,8.5.69,16.53,16.53,0,0,1,7.37-1,7.05,7.05,0,0,1,5.31,7v5.45c0,3.46-2.15,6.58-5,7.25a6.28,6.28,0,0,1-2,.17,14.59,14.59,0,0,0-15.15,11.87,62.43,62.43,0,0,1-122.79,0Zm30,131.69L79.54,280,91.1,268.4l31.06,31.06Zm31.4-27.35L106,261.72V246.25a77.26,77.26,0,0,0,55,0v15.47Zm30.8,27.35-20.06-17.11L175.3,268.4,186.86,280Z"/><path class="cls-1" d="M105.13,362.7H84.37a7.68,7.68,0,0,0-7.73,6.56,7.5,7.5,0,0,0,7.44,8.44h20.77a7.71,7.71,0,0,0,7.73-6.56A7.51,7.51,0,0,0,105.13,362.7Z"/></g></g></svg>