<svg xmlns="http://www.w3.org/2000/svg" viewBox="0 0 1264 97.15"><defs><style>.cls-1{fill:#ff0;}</style></defs><title>wave</title><g id="レイヤー_2" data-name="レイヤー 2"><g id="レイヤー_1-2" data-name="レイヤー 1"><path class="cls-1" d="M2,81Q1,42,0,3L1264,0q-1,46.5-2,93a144.54,144.54,0,0,1-56,0c-44.7-8.93-72.2-36.93-82-48-2.15,3.11-37,51.69-98,49-57-2.52-87.19-47.65-90-52-2.62,3.91-36,51.9-97,52-59.73.09-93.06-45.8-96-50-2.74,4.06-36.12,51.72-97,52-59.29.27-92.84-44.61-96-49-3.22,4.79-32.65,47.1-87,50-61.73,3.29-97.22-47.36-99-50-3.86,5.38-35,47.26-91,50-62.34,3.06-99.18-45.17-102-49-9.87,9.74-47.29,44.3-104,46A149.31,149.31,0,0,1,2,81Z"/></g></g></svg>